<?xml version="1.0" encoding="UTF-8"?>
<svg xmlns="http://www.w3.org/2000/svg" version="1.1" xmlns:xlink="http://www.w3.org/1999/xlink" viewBox="0 0 443.55 77.33">
  <!-- Generator: Adobe Illustrator 29.4.0, SVG Export Plug-In . SVG Version: 2.1.0 Build 152)  -->
  <defs>
    <style>
      .st0 {
        fill: url(#linear-gradient6);
      }

      .st0, .st1, .st2, .st3 {
        mix-blend-mode: soft-light;
      }

      .st0, .st4, .st5 {
        fill-rule: evenodd;
      }

      .st6 {
        fill: #fff;
      }

      .st2 {
        fill: url(#linear-gradient3);
      }

      .st3 {
        fill: url(#linear-gradient5);
      }

      .st7 {
        filter: url(#drop-shadow-1);
      }

      .st8 {
        isolation: isolate;
      }

      .st4 {
        fill: url(#linear-gradient1);
      }

      .st9 {
        fill: url(#linear-gradient4);
      }

      .st10 {
        fill: url(#linear-gradient);
      }

      .st5 {
        fill: url(#linear-gradient2);
      }
    </style>
    <filter id="drop-shadow-1" x=".35" y="-4.03" width="144.72" height="91.68" filterUnits="userSpaceOnUse">
      <feOffset dx="7" dy="7"/>
      <feGaussianBlur result="blur" stdDeviation="5"/>
      <feFlood flood-color="#393c44" flood-opacity=".75"/>
      <feComposite in2="blur" operator="in"/>
      <feComposite in="SourceGraphic"/>
    </filter>
    <linearGradient id="linear-gradient" x1="77.58" y1="7.39" x2="77.58" y2="50.44" gradientUnits="userSpaceOnUse">
      <stop offset="0" stop-color="#fcda3f"/>
      <stop offset=".72" stop-color="#f7752f"/>
      <stop offset="1" stop-color="#f64e29"/>
    </linearGradient>
    <linearGradient id="linear-gradient1" x1="8.41" y1="43.74" x2="123.01" y2="43.74" gradientUnits="userSpaceOnUse">
      <stop offset="0" stop-color="#0becf0"/>
      <stop offset=".89" stop-color="#0287fa"/>
      <stop offset="1" stop-color="#017bfc"/>
    </linearGradient>
    <linearGradient id="linear-gradient2" x1="107.16" y1="54.41" x2="12.93" y2="54.41" xlink:href="#linear-gradient1"/>
    <linearGradient id="linear-gradient3" x1="66.36" y1="4.39" x2="97.73" y2="43.32" gradientUnits="userSpaceOnUse">
      <stop offset="0" stop-color="#fff"/>
      <stop offset="1" stop-color="#999"/>
    </linearGradient>
    <linearGradient id="linear-gradient4" x1="100.89" y1="4.24" x2="100.89" y2="18.59" xlink:href="#linear-gradient"/>
    <linearGradient id="linear-gradient5" x1="101.39" y1="5.23" x2="101.39" y2="18.61" xlink:href="#linear-gradient3"/>
    <linearGradient id="linear-gradient6" x1="12.59" y1="46.66" x2="118.31" y2="46.66" xlink:href="#linear-gradient3"/>
  </defs>
  <g class="st8">
    <g id="OBJECTS">
      <g class="st7">
        <path class="st10" d="M70.31,8.5c-3.84-3.24-9.45-3.24-13.29,0l-12.65,10.66c-.8.67-.66,1.93.27,2.42.94.5,1.87,1.04,2.79,1.62,4.97,3.15,8.99,8.36,12.89,13.4,5.93,7.67,11.54,14.92,19.55,14.92h0c3.14,0,6.73-1.09,10.65-3.25,6.48-3.56,12.57-5.37,18.1-5.37.92,0,1.82.05,2.7.16l-2.38-2.01L70.31,8.5Z"/>
        <g>
          <path class="st4" d="M122.82,55.59c-5.36-8.49-15.69-10.92-29.99-3.07-26.52,14.57-33.97-16.32-48-25.23C27.14,16.05,4.62,22.2,8.95,46.56c.21,1.2,1.91,1.35,2.29.2,4.29-13.08,17-15.49,29.56-7.71,12.66,7.83,16.91,40.13,52.08,20.14,13.54-7.7,22-6.47,28.24-2.03,1.05.75,2.39-.48,1.7-1.56Z"/>
          <path class="st5" d="M32.19,43.85c-14.3-2.86-19.03,10.11-15.22,18.86.49,1.12,2.09.89,2.26-.32.75-5.38,5.52-11.02,12.19-11.04,7.22-.02,14.06,9.4,22.2,13.87,1.24.68,2.43-.99,1.37-1.92-8-6.97-13.67-17.63-22.8-19.46Z"/>
        </g>
        <path class="st2" d="M71.25,25.08c3.17,1.41,6.35,2.82,9.52,4.24.86.39,1.92,1.26,2.03,3.52.07,1.35-.25,2.62-.35,3.96-.2,2.84.67,5.6,1.7,6.65,1.03,1.05,2.19.82,3.29.61,4.24-.77,8.08-.62,11.77.44,3.27-1.03,6.4-1.57,9.37-1.57.92,0,1.82.05,2.7.16L70.31,8.5c-1.89-1.6-4.04-2.44-6.21-2.54-.75,4.57-.57,9.5.89,12.97,1.67,3.98,4.04,5.14,6.27,6.14Z"/>
        <g>
          <path class="st9" d="M108.19,10.6c.61,4.81-3.44,8.86-8.25,8.25-3.28-.41-5.93-3.06-6.34-6.34-.61-4.81,3.44-8.86,8.25-8.25,3.28.41,5.93,3.06,6.34,6.34Z"/>
          <g class="st1">
            <path class="st3" d="M104.58,5.19c.64,1.1,1,2.37.99,3.74-.03,3.97-3.34,7.28-7.31,7.31-1.36,0-2.64-.35-3.74-.99,1.41,2.43,4.17,3.98,7.26,3.62,3.33-.39,6.02-3.08,6.41-6.41.36-3.09-1.19-5.85-3.62-7.26Z"/>
          </g>
        </g>
        <path class="st0" d="M40.8,39.04c12.66,7.83,16.91,40.13,52.08,20.14,13.54-7.7,22-6.47,28.24-2.03.47.33.99.26,1.37,0-11.64-9.8-20.34-4.49-37.72,2.25-17.38,6.75-23.1-4.7-27.4-9.41-4.29-4.71-15.74-24.52-31.33-22.08-15.6,2.44-14.8,18.84-14.8,18.84,4.29-13.08,17-15.49,29.56-7.71Z"/>
      </g>
    </g>
    <g id="TEXTS">
      <g>
        <path class="st6" d="M158.48,16.33v7.58h-11.19v35.5h-8.27V23.91h-11.19v-7.58h30.65Z"/>
        <path class="st6" d="M187.7,44.06v15.61h-7.96v-15.61c0-1.87-.49-3.25-1.46-4.17-.97-.91-2.17-1.37-3.58-1.37-1.53,0-2.76.46-3.67,1.37s-1.37,2.3-1.37,4.17v15.61h-7.96V16.26h7.96v19.03c1-1.45,2.2-2.54,3.61-3.26,1.41-.72,2.84-1.09,4.29-1.09,1.28,0,2.53.26,3.73.78,1.2.52,2.28,1.33,3.23,2.42.95,1.1,1.72,2.47,2.3,4.1.58,1.64.87,3.58.87,5.81Z"/>
        <path class="st6" d="M206.6,31c1.99,0,3.85.34,5.6,1.03,1.74.68,3.26,1.69,4.57,3.02,1.31,1.33,2.33,3,3.08,5,.75,2.01,1.12,4.36,1.12,7.06v12.62h-7.96v-3.17c-1.08,1.33-2.35,2.31-3.82,2.95-1.47.64-3.08.96-4.82.96-1.58,0-3.1-.31-4.57-.93-1.47-.62-2.77-1.54-3.89-2.77-1.12-1.22-2.02-2.76-2.7-4.6-.68-1.84-1.03-3.99-1.03-6.44s.38-4.65,1.15-6.5c.77-1.84,1.8-3.38,3.11-4.6,1.31-1.22,2.83-2.13,4.57-2.74s3.61-.9,5.6-.9ZM206.6,52.82c1.74,0,3.19-.59,4.35-1.77,1.16-1.18,1.74-2.95,1.74-5.32s-.58-4.12-1.74-5.29c-1.16-1.16-2.61-1.74-4.35-1.74s-3.15.58-4.35,1.74c-1.2,1.16-1.8,2.92-1.8,5.29s.6,4.13,1.8,5.32c1.2,1.18,2.65,1.77,4.35,1.77Z"/>
        <path class="st6" d="M253.67,30.94c1.37,0,2.67.22,3.92.65,1.24.44,2.34,1.11,3.3,2.02.95.91,1.72,2.07,2.3,3.48.58,1.41.87,3.09.87,5.04v17.53h-7.96v-16.91c0-1.33-.34-2.33-1.03-3.02s-1.52-1.03-2.52-1.03-1.78.32-2.49.96c-.71.64-1.06,1.67-1.06,3.08v16.91h-7.96v-16.91c0-1.41-.36-2.43-1.09-3.08-.73-.64-1.57-.96-2.52-.96s-1.78.34-2.49,1.03-1.06,1.69-1.06,3.02v16.91h-7.96v-17.53c0-1.95.29-3.63.87-5.04.58-1.41,1.35-2.57,2.3-3.48s2.05-1.59,3.3-2.02c1.24-.43,2.55-.65,3.92-.65,1.87,0,3.54.37,5.04,1.12s2.71,1.91,3.67,3.48c.91-1.57,2.11-2.74,3.61-3.48s3.17-1.12,5.04-1.12Z"/>
        <path class="st6" d="M277.3,39.71c0,.54.29,1.02.87,1.43.58.42,1.31.83,2.18,1.24.87.42,1.82.88,2.86,1.4,1.04.52,1.99,1.13,2.86,1.83s1.59,1.55,2.18,2.55c.58,1,.87,2.2.87,3.61,0,1.53-.3,2.84-.9,3.92-.6,1.08-1.41,1.96-2.43,2.64s-2.2,1.18-3.54,1.49c-1.35.31-2.79.47-4.32.47s-3.02-.14-4.57-.4c-1.55-.27-3.08-.63-4.57-1.09v-6.84c1.37.58,2.74,1.02,4.1,1.31,1.37.29,2.61.44,3.73.44,1.33,0,2.42-.2,3.3-.59.87-.39,1.31-.94,1.31-1.65,0-.62-.3-1.14-.9-1.55-.6-.41-1.34-.83-2.21-1.24-.87-.41-1.83-.85-2.89-1.31-1.06-.46-2.02-1.04-2.89-1.74-.87-.71-1.61-1.56-2.21-2.58-.6-1.01-.9-2.27-.9-3.76s.33-2.7.99-3.76c.66-1.06,1.53-1.93,2.61-2.61,1.08-.68,2.31-1.18,3.7-1.49,1.39-.31,2.81-.47,4.26-.47,1.24,0,2.48.11,3.7.34,1.22.23,2.33.57,3.33,1.03l-.12,6.9c-2.78-1.12-5.12-1.68-7.03-1.68-1.08,0-1.91.19-2.49.56-.58.37-.87.91-.87,1.62Z"/>
        <path class="st6" d="M307.45,30.94c2.03,0,3.94.36,5.72,1.09,1.78.73,3.34,1.73,4.66,3.02,1.33,1.29,2.37,2.83,3.14,4.63.77,1.8,1.15,3.8,1.15,6s-.38,4.21-1.15,6.03c-.77,1.83-1.81,3.38-3.14,4.66-1.33,1.29-2.88,2.28-4.66,2.98-1.78.7-3.69,1.06-5.72,1.06s-3.94-.35-5.72-1.06c-1.78-.71-3.35-1.7-4.69-2.98-1.35-1.29-2.4-2.84-3.17-4.66-.77-1.82-1.15-3.83-1.15-6.03s.38-4.21,1.15-6.03c.77-1.82,1.82-3.38,3.17-4.66,1.35-1.28,2.91-2.28,4.69-2.98,1.78-.7,3.69-1.06,5.72-1.06ZM307.45,52.76c1.78,0,3.3-.65,4.54-1.96s1.87-3.02,1.87-5.13-.62-3.82-1.87-5.13-2.76-1.96-4.54-1.96-3.31.64-4.57,1.93c-1.27,1.29-1.9,3.01-1.9,5.16,0,1.04.17,1.99.5,2.86.33.87.8,1.62,1.4,2.24.6.62,1.29,1.11,2.08,1.46s1.62.53,2.49.53Z"/>
        <path class="st6" d="M340.72,31c1.99,0,3.85.3,5.6.9,1.74.6,3.26,1.52,4.57,2.77s2.33,2.79,3.08,4.63c.75,1.84,1.12,4.01,1.12,6.5s-.34,4.58-1.03,6.4c-.68,1.82-1.58,3.35-2.7,4.57-1.12,1.22-2.42,2.15-3.89,2.77-1.47.62-3,.93-4.57.93-1.74,0-3.35-.32-4.82-.96-1.47-.64-2.75-1.63-3.82-2.95v18.65h-7.96v-28.1c0-2.65.37-4.98,1.12-7,.75-2.01,1.77-3.69,3.08-5.04,1.31-1.35,2.84-2.36,4.6-3.05,1.76-.68,3.64-1.03,5.63-1.03ZM340.72,52.89c1.66,0,3.09-.59,4.29-1.77,1.2-1.18,1.8-2.95,1.8-5.32s-.6-4.13-1.8-5.32c-1.2-1.18-2.63-1.77-4.29-1.77-1.78,0-3.25.59-4.42,1.77-1.16,1.18-1.74,2.95-1.74,5.32s.59,4.13,1.77,5.32c1.18,1.18,2.64,1.77,4.38,1.77Z"/>
        <path class="st6" d="M367.57,32h19.77v28.1h-7.96v-21.02h-11.81v9.02c0,1.7.33,3.01,1,3.92.66.91,2.05,1.37,4.17,1.37.46,0,.92-.02,1.4-.06.48-.04,1-.1,1.59-.19v7.03c-1.12.21-2.19.36-3.2.47-1.02.1-1.98.16-2.89.16-3.19,0-5.65-.78-7.37-2.33-1.72-1.55-2.58-4.17-2.58-7.87v-28.17h7.9v9.58ZM383.31,28.2l-5.16-7.15c.5-.83,1.21-1.43,2.15-1.8s1.94-.56,3.02-.56,2.03.19,2.98.56c.95.37,1.66.97,2.11,1.8l-5.1,7.15Z"/>
        <path class="st6" d="M417.13,49.53v8.27c-1.66.87-3.37,1.53-5.13,1.99-1.76.46-3.51.68-5.25.68-1.95,0-3.8-.29-5.57-.87s-3.31-1.48-4.63-2.7c-1.33-1.22-2.38-2.76-3.17-4.6-.79-1.84-1.18-4.03-1.18-6.56s.37-4.78,1.12-6.62c.75-1.84,1.74-3.38,2.98-4.6,1.24-1.22,2.71-2.12,4.38-2.71,1.68-.58,3.45-.87,5.32-.87,3.4,0,6.78.89,10.13,2.67v8.21c-1.45-1.12-2.92-1.96-4.42-2.52s-2.9-.84-4.23-.84c-1.99,0-3.66.61-5.01,1.83-1.35,1.22-2.02,3.04-2.02,5.44s.72,4.15,2.18,5.35,3.25,1.8,5.41,1.8c1.41,0,2.89-.28,4.45-.84s3.08-1.4,4.57-2.52h.06Z"/>
        <path class="st6" d="M429.87,39.71c0,.54.29,1.02.87,1.43.58.42,1.31.83,2.18,1.24.87.42,1.82.88,2.86,1.4,1.04.52,1.99,1.13,2.86,1.83s1.59,1.55,2.18,2.55c.58,1,.87,2.2.87,3.61,0,1.53-.3,2.84-.9,3.92-.6,1.08-1.41,1.96-2.43,2.64s-2.2,1.18-3.54,1.49c-1.35.31-2.79.47-4.32.47s-3.02-.14-4.57-.4c-1.55-.27-3.08-.63-4.57-1.09v-6.84c1.37.58,2.74,1.02,4.1,1.31,1.37.29,2.61.44,3.73.44,1.33,0,2.42-.2,3.3-.59.87-.39,1.31-.94,1.31-1.65,0-.62-.3-1.14-.9-1.55-.6-.41-1.34-.83-2.21-1.24-.87-.41-1.83-.85-2.89-1.31-1.06-.46-2.02-1.04-2.89-1.74-.87-.71-1.61-1.56-2.21-2.58-.6-1.01-.9-2.27-.9-3.76s.33-2.7.99-3.76c.66-1.06,1.53-1.93,2.61-2.61,1.08-.68,2.31-1.18,3.7-1.49,1.39-.31,2.81-.47,4.26-.47,1.24,0,2.48.11,3.7.34,1.22.23,2.33.57,3.33,1.03l-.12,6.9c-2.78-1.12-5.12-1.68-7.03-1.68-1.08,0-1.91.19-2.49.56-.58.37-.87.91-.87,1.62Z"/>
      </g>
    </g>
  </g>
</svg>