<?xml version="1.0" encoding="UTF-8"?>
<svg xmlns="http://www.w3.org/2000/svg" version="1.1" xmlns:xlink="http://www.w3.org/1999/xlink" viewBox="0 0 500 189.83">
  <!-- Generator: Adobe Illustrator 29.4.0, SVG Export Plug-In . SVG Version: 2.1.0 Build 152)  -->
  <defs>
    <style>
      .st0 {
        fill: #002366;
      }

      .st1 {
        fill: url(#linear-gradient6);
      }

      .st1, .st2, .st3, .st4 {
        mix-blend-mode: soft-light;
      }

      .st1, .st5, .st6 {
        fill-rule: evenodd;
      }

      .st3 {
        fill: url(#linear-gradient3);
      }

      .st4 {
        fill: url(#linear-gradient5);
      }

      .st7 {
        filter: url(#drop-shadow-1);
      }

      .st8 {
        isolation: isolate;
      }

      .st5 {
        fill: url(#linear-gradient1);
      }

      .st9 {
        fill: url(#linear-gradient4);
      }

      .st10 {
        fill: url(#linear-gradient);
      }

      .st6 {
        fill: url(#linear-gradient2);
      }
    </style>
    <filter id="drop-shadow-1" x="124.8" y="6.69" width="199.44" height="124.8" filterUnits="userSpaceOnUse">
      <feOffset dx="7" dy="7"/>
      <feGaussianBlur result="blur" stdDeviation="5"/>
      <feFlood flood-color="#393c44" flood-opacity=".75"/>
      <feComposite in2="blur" operator="in"/>
      <feComposite in="SourceGraphic"/>
    </filter>
    <linearGradient id="linear-gradient" x1="234.98" y1="19.73" x2="234.98" y2="86.05" gradientUnits="userSpaceOnUse">
      <stop offset="0" stop-color="#fcda3f"/>
      <stop offset=".72" stop-color="#f7752f"/>
      <stop offset="1" stop-color="#f64e29"/>
    </linearGradient>
    <linearGradient id="linear-gradient1" x1="132.92" y1="75.72" x2="302.03" y2="75.72" gradientUnits="userSpaceOnUse">
      <stop offset="0" stop-color="#0becf0"/>
      <stop offset=".89" stop-color="#0287fa"/>
      <stop offset="1" stop-color="#017bfc"/>
    </linearGradient>
    <linearGradient id="linear-gradient2" x1="278.63" y1="92.17" x2="139.59" y2="92.17" xlink:href="#linear-gradient1"/>
    <linearGradient id="linear-gradient3" x1="217.29" y1="16.13" x2="264.59" y2="74.83" gradientUnits="userSpaceOnUse">
      <stop offset="0" stop-color="#fff"/>
      <stop offset="1" stop-color="#999"/>
    </linearGradient>
    <linearGradient id="linear-gradient4" x1="269.39" y1="14.87" x2="269.39" y2="36.97" xlink:href="#linear-gradient"/>
    <linearGradient id="linear-gradient5" x1="270.12" y1="16.4" x2="270.12" y2="37.01" xlink:href="#linear-gradient3"/>
    <linearGradient id="linear-gradient6" x1="139.09" y1="80.22" x2="295.09" y2="80.22" xlink:href="#linear-gradient3"/>
  </defs>
  <g class="st8">
    <g id="OBJECTS">
      <g class="st7">
        <path class="st10" d="M224.26,21.44c-5.66-4.99-13.95-4.99-19.61,0l-18.66,16.43c-1.18,1.04-.97,2.97.39,3.73,1.39.77,2.76,1.6,4.11,2.5,7.33,4.86,13.27,12.89,19.02,20.65,8.75,11.82,17.02,22.99,28.84,22.99h0c4.64,0,9.92-1.68,15.71-5,9.56-5.48,18.55-8.27,26.7-8.27,1.35,0,2.68.08,3.98.24l-3.51-3.09-56.98-50.17Z"/>
        <g>
          <path class="st5" d="M301.75,93.98c-7.92-13.08-23.15-16.83-44.25-4.72-39.13,22.44-50.13-25.14-70.83-38.87-26.1-17.31-59.33-7.83-52.94,29.69.31,1.85,2.82,2.09,3.38.3,6.33-20.15,25.09-23.86,43.62-11.89,18.67,12.06,24.95,61.83,76.84,31.03,19.98-11.86,32.46-9.97,41.67-3.13,1.55,1.15,3.53-.73,2.52-2.41Z"/>
          <path class="st6" d="M168.02,75.89c-21.1-4.41-28.09,15.58-22.46,29.06.72,1.73,3.09,1.37,3.34-.49,1.11-8.28,8.15-16.98,17.98-17.01,10.66-.03,20.75,14.49,32.76,21.37,1.83,1.05,3.59-1.52,2.02-2.95-11.8-10.74-20.17-27.17-33.64-29.98Z"/>
        </g>
        <path class="st3" d="M225.66,46.97c4.68,2.18,9.36,4.35,14.05,6.53,1.27.6,2.83,1.94,3,5.42.1,2.07-.37,4.03-.51,6.1-.3,4.37.98,8.62,2.51,10.24,1.53,1.61,3.22,1.26,4.86.95,6.26-1.19,11.92-.95,17.37.67,4.82-1.59,9.45-2.42,13.83-2.42,1.35,0,2.68.08,3.98.24l-60.49-53.26c-2.8-2.46-5.97-3.75-9.16-3.91-1.11,7.04-.85,14.63,1.31,19.99,2.46,6.14,5.96,7.92,9.25,9.46Z"/>
        <g>
          <path class="st9" d="M280.16,24.67c.9,7.41-5.08,13.65-12.18,12.71-4.84-.64-8.75-4.72-9.36-9.77-.89-7.41,5.08-13.65,12.18-12.71,4.84.64,8.75,4.72,9.36,9.77Z"/>
          <g class="st2">
            <path class="st4" d="M274.83,16.34c.94,1.69,1.48,3.66,1.46,5.76-.04,6.11-4.92,11.21-10.78,11.25-2.01.01-3.89-.54-5.51-1.53,2.08,3.75,6.16,6.14,10.71,5.58,4.91-.6,8.88-4.75,9.46-9.88.54-4.76-1.75-9.01-5.34-11.18Z"/>
          </g>
        </g>
        <path class="st1" d="M180.72,68.48c18.67,12.06,24.95,61.83,76.84,31.03,19.98-11.86,32.46-9.97,41.67-3.13.69.51,1.46.4,2.02,0-17.18-15.09-30.02-6.92-55.66,3.47-25.65,10.39-34.09-7.24-40.43-14.49-6.34-7.25-23.22-37.78-46.24-34.02-23.01,3.76-21.83,29.03-21.83,29.03,6.33-20.15,25.09-23.86,43.62-11.89Z"/>
      </g>
    </g>
    <g id="TEXTS">
      <g>
        <path class="st0" d="M93.55,109.04v7.58h-11.19v35.5h-8.27v-35.5h-11.19v-7.58h30.65Z"/>
        <path class="st0" d="M122.77,136.77v15.61h-7.96v-15.61c0-1.87-.49-3.25-1.46-4.17-.97-.91-2.17-1.37-3.58-1.37-1.53,0-2.76.46-3.67,1.37s-1.37,2.3-1.37,4.17v15.61h-7.96v-43.4h7.96v19.03c1-1.45,2.2-2.54,3.61-3.26,1.41-.72,2.84-1.09,4.29-1.09,1.28,0,2.53.26,3.73.78,1.2.52,2.28,1.33,3.23,2.42.95,1.1,1.72,2.47,2.3,4.1.58,1.64.87,3.58.87,5.81Z"/>
        <path class="st0" d="M141.68,123.71c1.99,0,3.85.34,5.6,1.03,1.74.68,3.26,1.69,4.57,3.02,1.31,1.33,2.33,3,3.08,5,.75,2.01,1.12,4.36,1.12,7.06v12.62h-7.96v-3.17c-1.08,1.33-2.35,2.31-3.82,2.95-1.47.64-3.08.96-4.82.96-1.58,0-3.1-.31-4.57-.93-1.47-.62-2.77-1.54-3.89-2.77-1.12-1.22-2.02-2.76-2.7-4.6-.68-1.84-1.03-3.99-1.03-6.44s.38-4.65,1.15-6.5c.77-1.84,1.8-3.38,3.11-4.6,1.31-1.22,2.83-2.13,4.57-2.74s3.61-.9,5.6-.9ZM141.68,145.53c1.74,0,3.19-.59,4.35-1.77,1.16-1.18,1.74-2.95,1.74-5.32s-.58-4.12-1.74-5.29c-1.16-1.16-2.61-1.74-4.35-1.74s-3.15.58-4.35,1.74c-1.2,1.16-1.8,2.92-1.8,5.29s.6,4.13,1.8,5.32c1.2,1.18,2.65,1.77,4.35,1.77Z"/>
        <path class="st0" d="M188.74,123.65c1.37,0,2.67.22,3.92.65,1.24.44,2.34,1.11,3.3,2.02.95.91,1.72,2.07,2.3,3.48.58,1.41.87,3.09.87,5.04v17.53h-7.96v-16.91c0-1.33-.34-2.33-1.03-3.02s-1.52-1.03-2.52-1.03-1.78.32-2.49.96c-.71.64-1.06,1.67-1.06,3.08v16.91h-7.96v-16.91c0-1.41-.36-2.43-1.09-3.08-.73-.64-1.57-.96-2.52-.96s-1.78.34-2.49,1.03c-.71.68-1.06,1.69-1.06,3.02v16.91h-7.96v-17.53c0-1.95.29-3.63.87-5.04.58-1.41,1.35-2.57,2.3-3.48.95-.91,2.05-1.59,3.3-2.02,1.24-.43,2.55-.65,3.92-.65,1.87,0,3.54.37,5.04,1.12s2.71,1.91,3.67,3.48c.91-1.57,2.11-2.74,3.61-3.48s3.17-1.12,5.04-1.12Z"/>
        <path class="st0" d="M212.37,132.41c0,.54.29,1.02.87,1.43.58.42,1.31.83,2.18,1.24.87.42,1.82.88,2.86,1.4,1.04.52,1.99,1.13,2.86,1.83s1.59,1.55,2.18,2.55c.58,1,.87,2.2.87,3.61,0,1.53-.3,2.84-.9,3.92-.6,1.08-1.41,1.96-2.43,2.64s-2.2,1.18-3.54,1.49c-1.35.31-2.79.47-4.32.47s-3.02-.14-4.57-.4c-1.55-.27-3.08-.63-4.57-1.09v-6.84c1.37.58,2.74,1.02,4.1,1.31,1.37.29,2.61.44,3.73.44,1.33,0,2.42-.2,3.3-.59.87-.39,1.31-.94,1.31-1.65,0-.62-.3-1.14-.9-1.55-.6-.41-1.34-.83-2.21-1.24-.87-.41-1.83-.85-2.89-1.31-1.06-.46-2.02-1.04-2.89-1.74-.87-.71-1.61-1.56-2.21-2.58-.6-1.01-.9-2.27-.9-3.76s.33-2.7.99-3.76c.66-1.06,1.53-1.93,2.61-2.61,1.08-.68,2.31-1.18,3.7-1.49,1.39-.31,2.81-.47,4.26-.47,1.24,0,2.48.11,3.7.34,1.22.23,2.33.57,3.33,1.03l-.12,6.9c-2.78-1.12-5.12-1.68-7.03-1.68-1.08,0-1.91.19-2.49.56-.58.37-.87.91-.87,1.62Z"/>
        <path class="st0" d="M242.53,123.65c2.03,0,3.94.36,5.72,1.09,1.78.73,3.34,1.73,4.66,3.02,1.33,1.29,2.37,2.83,3.14,4.63.77,1.8,1.15,3.8,1.15,6s-.38,4.21-1.15,6.03c-.77,1.83-1.81,3.38-3.14,4.66-1.33,1.29-2.88,2.28-4.66,2.98-1.78.7-3.69,1.06-5.72,1.06s-3.94-.35-5.72-1.06c-1.78-.71-3.35-1.7-4.69-2.98-1.35-1.29-2.4-2.84-3.17-4.66-.77-1.82-1.15-3.83-1.15-6.03s.38-4.21,1.15-6.03c.77-1.82,1.82-3.38,3.17-4.66,1.35-1.28,2.91-2.28,4.69-2.98,1.78-.7,3.69-1.06,5.72-1.06ZM242.53,145.47c1.78,0,3.3-.65,4.54-1.96s1.87-3.02,1.87-5.13-.62-3.82-1.87-5.13-2.76-1.96-4.54-1.96-3.31.64-4.57,1.93c-1.27,1.29-1.9,3.01-1.9,5.16,0,1.04.17,1.99.5,2.86.33.87.8,1.62,1.4,2.24.6.62,1.29,1.11,2.08,1.46s1.62.53,2.49.53Z"/>
        <path class="st0" d="M275.79,123.71c1.99,0,3.85.3,5.6.9,1.74.6,3.26,1.52,4.57,2.77s2.33,2.79,3.08,4.63c.75,1.84,1.12,4.01,1.12,6.5s-.34,4.58-1.03,6.4c-.68,1.82-1.58,3.35-2.7,4.57-1.12,1.22-2.42,2.15-3.89,2.77-1.47.62-3,.93-4.57.93-1.74,0-3.35-.32-4.82-.96-1.47-.64-2.75-1.63-3.82-2.95v18.65h-7.96v-28.1c0-2.65.37-4.98,1.12-7,.75-2.01,1.77-3.69,3.08-5.04,1.31-1.35,2.84-2.36,4.6-3.05,1.76-.68,3.64-1.03,5.63-1.03ZM275.79,145.59c1.66,0,3.09-.59,4.29-1.77,1.2-1.18,1.8-2.95,1.8-5.32s-.6-4.13-1.8-5.32c-1.2-1.18-2.63-1.77-4.29-1.77-1.78,0-3.25.59-4.42,1.77-1.16,1.18-1.74,2.95-1.74,5.32s.59,4.13,1.77,5.32c1.18,1.18,2.64,1.77,4.38,1.77Z"/>
        <path class="st0" d="M302.65,124.7h19.77v28.1h-7.96v-21.02h-11.81v9.02c0,1.7.33,3.01,1,3.92.66.91,2.05,1.37,4.17,1.37.46,0,.92-.02,1.4-.06.48-.04,1-.1,1.59-.19v7.03c-1.12.21-2.19.36-3.2.47-1.02.1-1.98.16-2.89.16-3.19,0-5.65-.78-7.37-2.33-1.72-1.55-2.58-4.17-2.58-7.87v-28.17h7.9v9.58ZM318.38,120.91l-5.16-7.15c.5-.83,1.21-1.43,2.15-1.8s1.94-.56,3.02-.56,2.03.19,2.98.56c.95.37,1.66.97,2.11,1.8l-5.1,7.15Z"/>
        <path class="st0" d="M352.2,142.24v8.27c-1.66.87-3.37,1.53-5.13,1.99-1.76.46-3.51.68-5.25.68-1.95,0-3.8-.29-5.57-.87s-3.31-1.48-4.63-2.7c-1.33-1.22-2.38-2.76-3.17-4.6-.79-1.84-1.18-4.03-1.18-6.56s.37-4.78,1.12-6.62c.75-1.84,1.74-3.38,2.98-4.6,1.24-1.22,2.71-2.12,4.38-2.71,1.68-.58,3.45-.87,5.32-.87,3.4,0,6.78.89,10.13,2.67v8.21c-1.45-1.12-2.92-1.96-4.42-2.52s-2.9-.84-4.23-.84c-1.99,0-3.66.61-5.01,1.83-1.35,1.22-2.02,3.04-2.02,5.44s.72,4.15,2.18,5.35,3.25,1.8,5.41,1.8c1.41,0,2.89-.28,4.45-.84s3.08-1.4,4.57-2.52h.06Z"/>
        <path class="st0" d="M364.95,132.41c0,.54.29,1.02.87,1.43.58.42,1.31.83,2.18,1.24.87.42,1.82.88,2.86,1.4,1.04.52,1.99,1.13,2.86,1.83s1.59,1.55,2.18,2.55c.58,1,.87,2.2.87,3.61,0,1.53-.3,2.84-.9,3.92-.6,1.08-1.41,1.96-2.43,2.64s-2.2,1.18-3.54,1.49c-1.35.31-2.79.47-4.32.47s-3.02-.14-4.57-.4c-1.55-.27-3.08-.63-4.57-1.09v-6.84c1.37.58,2.74,1.02,4.1,1.31,1.37.29,2.61.44,3.73.44,1.33,0,2.42-.2,3.3-.59.87-.39,1.31-.94,1.31-1.65,0-.62-.3-1.14-.9-1.55-.6-.41-1.34-.83-2.21-1.24-.87-.41-1.83-.85-2.89-1.31-1.06-.46-2.02-1.04-2.89-1.74-.87-.71-1.61-1.56-2.21-2.58-.6-1.01-.9-2.27-.9-3.76s.33-2.7.99-3.76c.66-1.06,1.53-1.93,2.61-2.61,1.08-.68,2.31-1.18,3.7-1.49,1.39-.31,2.81-.47,4.26-.47,1.24,0,2.48.11,3.7.34,1.22.23,2.33.57,3.33,1.03l-.12,6.9c-2.78-1.12-5.12-1.68-7.03-1.68-1.08,0-1.91.19-2.49.56-.58.37-.87.91-.87,1.62Z"/>
      </g>
    </g>
  </g>
</svg>